<svg xmlns="http://www.w3.org/2000/svg" xmlns:xlink="http://www.w3.org/1999/xlink" width="375" height="812" viewBox="0 0 375 812">
  <defs>
    <clipPath id="clip-iPhone_X_XS_11_Pro_9">
      <rect width="375" height="812"/>
    </clipPath>
  </defs>
  <g id="iPhone_X_XS_11_Pro_9" data-name="iPhone X, XS, 11 Pro – 9" clip-path="url(#clip-iPhone_X_XS_11_Pro_9)">
    <rect width="375" height="812" fill="#3d3d3d"/>
    <text id="Select_Station_for_Work" data-name="Select
Station for Work" transform="translate(188 129)" fill="#fff" font-size="31" font-family="BerlinSansFB-Reg, Berlin Sans FB" letter-spacing="0.02em"><tspan x="-38.665" y="0">Select</tspan><tspan x="-111.296" y="25">Station for Work</tspan></text>
    <g id="Work" transform="translate(0 -84)">
      <g id="Rectangle_11" data-name="Rectangle 11" transform="translate(36 424)" fill="rgba(255,255,255,0.99)" stroke="#9f1cc5" stroke-width="1">
        <rect width="303" height="166" rx="10" stroke="none"/>
        <rect x="0.5" y="0.5" width="302" height="165" rx="9.5" fill="none"/>
      </g>
      <text id="Brownsville" transform="translate(49 455)" fill="#9a0196" font-size="20" font-family="BerlinSansFB-Reg, Berlin Sans FB"><tspan x="0" y="0">Brownsville</tspan></text>
      <text id="Brownsville-2" data-name="Brownsville" transform="translate(49 455)" fill="#9a0196" font-size="20" font-family="BerlinSansFB-Reg, Berlin Sans FB"><tspan x="0" y="0">Brownsville</tspan></text>
      <text id="New_York" data-name="New York" transform="translate(49 493)" fill="#9a0196" font-size="20" font-family="BerlinSansFB-Reg, Berlin Sans FB"><tspan x="0" y="0">New York</tspan></text>
      <text id="The_Morgan_Library_Museum" data-name="The Morgan Library &amp; Museum" transform="translate(49 531)" fill="#9a0196" font-size="20" font-family="BerlinSansFB-Reg, Berlin Sans FB"><tspan x="0" y="0">The Morgan Library &amp; Museum</tspan></text>
      <text id="Tisch_Hospital" data-name="Tisch Hospital" transform="translate(49 569)" fill="#9a0196" font-size="20" font-family="BerlinSansFB-Reg, Berlin Sans FB"><tspan x="0" y="0">Tisch Hospital</tspan></text>
      <g id="radio-button-checked" transform="translate(305.75 438.75)">
        <path id="Path_5" data-name="Path 5" d="M9.75,2.25a7.5,7.5,0,1,0,7.5,7.5A7.5,7.5,0,0,0,9.75,2.25Zm0,13.929A6.429,6.429,0,1,1,16.179,9.75,6.429,6.429,0,0,1,9.75,16.179Z" transform="translate(0 0)" fill="#9a0196"/>
        <path id="Path_6" data-name="Path 6" d="M15.5,11.25a4.25,4.25,0,1,0,4.25,4.25A4.25,4.25,0,0,0,15.5,11.25Z" transform="translate(-5.75 -5.75)" fill="#9a0196"/>
        <path id="Path_7" data-name="Path 7" d="M15.5,11.25a4.25,4.25,0,1,0,4.25,4.25A4.25,4.25,0,0,0,15.5,11.25Z" transform="translate(-5.75 -5.75)" fill="#9a0196"/>
      </g>
      <g id="radio-button-checked-2" data-name="radio-button-checked" transform="translate(305.75 438.75)">
        <path id="Path_5-2" data-name="Path 5" d="M9.75,2.25a7.5,7.5,0,1,0,7.5,7.5A7.5,7.5,0,0,0,9.75,2.25Zm0,13.929A6.429,6.429,0,1,1,16.179,9.75,6.429,6.429,0,0,1,9.75,16.179Z" transform="translate(0 0)" fill="#9a0196"/>
        <path id="Path_6-2" data-name="Path 6" d="M15.5,11.25a4.25,4.25,0,1,0,4.25,4.25A4.25,4.25,0,0,0,15.5,11.25Z" transform="translate(-5.75 -5.75)" fill="#9a0196"/>
        <path id="Path_7-2" data-name="Path 7" d="M15.5,11.25a4.25,4.25,0,1,0,4.25,4.25A4.25,4.25,0,0,0,15.5,11.25Z" transform="translate(-5.75 -5.75)" fill="#9a0196"/>
      </g>
      <g id="radio-button-checked-3" data-name="radio-button-checked" transform="translate(305.75 438.75)">
        <path id="Path_5-3" data-name="Path 5" d="M9.75,2.25a7.5,7.5,0,1,0,7.5,7.5A7.5,7.5,0,0,0,9.75,2.25Zm0,13.929A6.429,6.429,0,1,1,16.179,9.75,6.429,6.429,0,0,1,9.75,16.179Z" transform="translate(0 0)" fill="#9a0196"/>
        <path id="Path_6-3" data-name="Path 6" d="M15.5,11.25a4.25,4.25,0,1,0,4.25,4.25A4.25,4.25,0,0,0,15.5,11.25Z" transform="translate(-5.75 -5.75)" fill="#9a0196"/>
        <path id="Path_7-3" data-name="Path 7" d="M15.5,11.25a4.25,4.25,0,1,0,4.25,4.25A4.25,4.25,0,0,0,15.5,11.25Z" transform="translate(-5.75 -5.75)" fill="#9a0196"/>
      </g>
      <g id="radio-button-checked-4" data-name="radio-button-checked" transform="translate(305.75 477.75)">
        <path id="Path_5-4" data-name="Path 5" d="M9.75,2.25a7.5,7.5,0,1,0,7.5,7.5A7.5,7.5,0,0,0,9.75,2.25Zm0,13.929A6.429,6.429,0,1,1,16.179,9.75,6.429,6.429,0,0,1,9.75,16.179Z" transform="translate(0 0)" fill="#9a0196"/>
      </g>
      <g id="radio-button-checked-5" data-name="radio-button-checked" transform="translate(305.75 516.75)">
        <path id="Path_5-5" data-name="Path 5" d="M9.75,2.25a7.5,7.5,0,1,0,7.5,7.5A7.5,7.5,0,0,0,9.75,2.25Zm0,13.929A6.429,6.429,0,1,1,16.179,9.75,6.429,6.429,0,0,1,9.75,16.179Z" transform="translate(0 0)" fill="#9a0196"/>
      </g>
      <g id="radio-button-checked-6" data-name="radio-button-checked" transform="translate(305.75 552.75)">
        <path id="Path_5-6" data-name="Path 5" d="M9.75,2.25a7.5,7.5,0,1,0,7.5,7.5A7.5,7.5,0,0,0,9.75,2.25Zm0,13.929A6.429,6.429,0,1,1,16.179,9.75,6.429,6.429,0,0,1,9.75,16.179Z" transform="translate(0 0)" fill="#9a0196"/>
      </g>
    </g>
    <path id="home" d="M47.954,2.906a2.942,2.942,0,0,0-3.72,0L1.125,37.393l3.72,4.859,5.28-4.247V76.091a6.078,6.078,0,0,0,6,6.153h60a6.078,6.078,0,0,0,6-6.153V38.039l5.28,4.214,3.72-4.829Zm4.171,73.185h-12V51.481h12Zm6,0V51.481a6.078,6.078,0,0,0-6-6.153h-12a6.078,6.078,0,0,0-6,6.153v24.61h-18V33.209l30-23.965,30,23.995V76.091Z" transform="translate(141.875 208.756)" fill="#fff"/>
  </g>
</svg>
