<svg xmlns="http://www.w3.org/2000/svg" xmlns:xlink="http://www.w3.org/1999/xlink" width="375" height="812" viewBox="0 0 375 812">
  <defs>
    <linearGradient id="linear-gradient" x1="1" y1="1" x2="0" gradientUnits="objectBoundingBox">
      <stop offset="0" stop-color="#c92323"/>
      <stop offset="0.195" stop-color="#c0232c"/>
      <stop offset="0.89" stop-color="#2b1eb5"/>
      <stop offset="1" stop-color="#231ebd"/>
    </linearGradient>
    <filter id="Rectangle_9" x="76" y="617" width="227" height="90" filterUnits="userSpaceOnUse">
      <feOffset dx="2" dy="2" input="SourceAlpha"/>
      <feGaussianBlur stdDeviation="9" result="blur"/>
      <feFlood flood-opacity="0.31"/>
      <feComposite operator="in" in2="blur"/>
      <feComposite in="SourceGraphic"/>
    </filter>
    <clipPath id="clip-iPhone_X_XS_11_Pro_34">
      <rect width="375" height="812"/>
    </clipPath>
  </defs>
  <g id="iPhone_X_XS_11_Pro_34" data-name="iPhone X, XS, 11 Pro – 34" clip-path="url(#clip-iPhone_X_XS_11_Pro_34)">
    <rect width="375" height="812" fill="url(#linear-gradient)"/>
    <g id="Button" transform="translate(0 -39)">
      <g transform="matrix(1, 0, 0, 1, 0, 39)" filter="url(#Rectangle_9)">
        <g id="Rectangle_9-2" data-name="Rectangle 9" transform="translate(101 642)" fill="#fff" stroke="#fff" stroke-width="1">
          <rect width="173" height="36" rx="18" stroke="none"/>
          <rect x="0.5" y="0.5" width="172" height="35" rx="17.5" fill="none"/>
        </g>
      </g>
      <text id="Stop" transform="translate(173 704)" fill="#9a0196" font-size="15" font-family="BerlinSansFB-Reg, Berlin Sans FB" letter-spacing="0.02em"><tspan x="0" y="0">Stop</tspan></text>
    </g>
    <g id="Rectangle_27" data-name="Rectangle 27" transform="translate(44 246)" fill="#fff" stroke="rgba(255,255,255,0.5)" stroke-linejoin="round" stroke-width="2">
      <rect width="287" height="251" rx="16" stroke="none"/>
      <rect x="1" y="1" width="285" height="249" rx="15" fill="none"/>
    </g>
    <text id="Wake_Up_Now_Arriving_at_Brownsville_Station" data-name="Wake Up!

Now Arriving at Brownsville Station" transform="translate(188 371)" fill="#fff" font-size="28" font-family="BerlinSansFB-Reg, Berlin Sans FB" letter-spacing="0.02em"><tspan x="-60.496" y="0">Wake Up!</tspan><tspan font-size="15"><tspan x="0.15" y="16"></tspan></tspan><tspan font-size="17"><tspan x="-131.425" y="32">Now Arriving at Brownsville Station</tspan></tspan></text>
    <g id="alarm-fill" transform="translate(162.996 271)">
      <path id="Path_1" data-name="Path 1" d="M17.187,1.562A1.563,1.563,0,0,1,18.75,0h12.5a1.562,1.562,0,1,1,0,3.125H28.126V6.469A21.88,21.88,0,0,1,39.179,44.78l2.553,2.55a1.564,1.564,0,1,1-2.213,2.212l-2.888-2.89a21.9,21.9,0,0,1-23.263,0L10.481,49.54a1.564,1.564,0,0,1-2.213-2.212l2.553-2.55A21.88,21.88,0,0,1,21.875,6.468V3.125H18.747a1.563,1.563,0,0,1-1.563-1.562ZM2.686,16.834A7.813,7.813,0,1,1,13.709,5.812,25.11,25.11,0,0,0,2.686,16.834Zm39.5-13.709a7.8,7.8,0,0,0-5.9,2.687A25.11,25.11,0,0,1,47.315,16.834,7.812,7.812,0,0,0,42.189,3.125Zm-15.626,12.5a1.563,1.563,0,0,0-3.125,0V27.755L18.915,36.8a1.562,1.562,0,1,0,2.794,1.4L26.4,28.823a1.562,1.562,0,0,0,.167-.7Z" transform="translate(0 0)" fill="#fff" fill-rule="evenodd"/>
    </g>
  </g>
</svg>
