<svg xmlns="http://www.w3.org/2000/svg" xmlns:xlink="http://www.w3.org/1999/xlink" width="375" height="812" viewBox="0 0 375 812">
  <defs>
    <filter id="Sound_Only" x="50" y="351" width="127" height="52" filterUnits="userSpaceOnUse">
      <feOffset dx="3" dy="3" input="SourceAlpha"/>
      <feGaussianBlur stdDeviation="5" result="blur"/>
      <feFlood flood-opacity="0.502"/>
      <feComposite operator="in" in2="blur"/>
      <feComposite in="SourceGraphic"/>
    </filter>
    <filter id="Vibrate" x="49" y="418" width="94" height="52" filterUnits="userSpaceOnUse">
      <feOffset dx="3" dy="3" input="SourceAlpha"/>
      <feGaussianBlur stdDeviation="5" result="blur-2"/>
      <feFlood flood-opacity="0.502"/>
      <feComposite operator="in" in2="blur-2"/>
      <feComposite in="SourceGraphic"/>
    </filter>
    <clipPath id="clip-iPhone_X_XS_11_Pro_14">
      <rect width="375" height="812"/>
    </clipPath>
  </defs>
  <g id="iPhone_X_XS_11_Pro_14" data-name="iPhone X, XS, 11 Pro – 14" clip-path="url(#clip-iPhone_X_XS_11_Pro_14)">
    <rect width="375" height="812" fill="#3d3d3d"/>
    <rect id="Rectangle_12" data-name="Rectangle 12" width="314" height="61" rx="10" transform="translate(31 285)" fill="#9a0196" opacity="0.5"/>
    <rect id="Rectangle_13" data-name="Rectangle 13" width="314" height="61" rx="10" transform="translate(31 373)" fill="#9a0196" opacity="0.5"/>
    <rect id="Rectangle_17" data-name="Rectangle 17" width="314" height="67" rx="10" transform="translate(31 461)" fill="#9a0196" opacity="0.5"/>
    <path id="home" d="M16.735,2.451a1.032,1.032,0,0,0-1.24,0L1.125,13.228l1.24,1.518,1.76-1.327v11.9a1.962,1.962,0,0,0,2,1.923h20a1.962,1.962,0,0,0,2-1.923V13.43l1.76,1.317,1.24-1.509Zm1.39,22.87h-4V17.63h4Zm2,0V17.63a1.962,1.962,0,0,0-2-1.923h-4a1.962,1.962,0,0,0-2,1.923v7.691h-6V11.92l10-7.489,10,7.5V25.321Z" transform="translate(42.875 300.756)" fill="#fff" opacity="0.5"/>
    <rect id="Rectangle_10" data-name="Rectangle 10" width="257" height="61" rx="10" transform="translate(88 285)" fill="rgba(255,255,255,0.99)" opacity="0.5"/>
    <rect id="Rectangle_14" data-name="Rectangle 14" width="257" height="61" rx="10" transform="translate(88 373)" fill="rgba(255,255,255,0.99)" opacity="0.5"/>
    <rect id="Rectangle_18" data-name="Rectangle 18" width="257" height="67" rx="10" transform="translate(88 461)" fill="rgba(255,255,255,0.99)" opacity="0.5"/>
    <text id="Brownsville" transform="translate(147 323)" fill="#9a0196" font-size="20" font-family="BerlinSansFB-Reg, Berlin Sans FB" opacity="0.5"><tspan x="0" y="0">Brownsville</tspan></text>
    <text id="Manhattan" transform="translate(147 410)" fill="#9a0196" font-size="20" font-family="BerlinSansFB-Reg, Berlin Sans FB" opacity="0.5"><tspan x="0" y="0">Manhattan</tspan></text>
    <path id="drop-down" d="M7.5,12,15,19l7.5-7Z" transform="translate(303.5 301)" fill="#9a0196" fill-rule="evenodd" opacity="0.5"/>
    <path id="drop-down-2" data-name="drop-down" d="M7.5,12,15,19l7.5-7Z" transform="translate(303.5 389)" fill="#9a0196" fill-rule="evenodd" opacity="0.5"/>
    <path id="drop-down-3" data-name="drop-down" d="M7.5,12,15,19l7.5-7Z" transform="translate(303 513.5) rotate(-90)" fill="#9a0196" fill-rule="evenodd" opacity="0.5"/>
    <g id="Button" opacity="0.5">
      <g id="Rectangle_9" data-name="Rectangle 9" transform="translate(101 681)" fill="#9a0196" stroke="#fff" stroke-width="1">
        <rect width="173" height="36" rx="18" stroke="none"/>
        <rect x="0.5" y="0.5" width="172" height="35" rx="17.5" fill="none"/>
      </g>
      <text id="Set_Alarm" data-name="Set Alarm" transform="translate(155 704)" fill="#fff" font-size="15" font-family="BerlinSansFB-Reg, Berlin Sans FB" letter-spacing="0.02em"><tspan x="0" y="0">Set Alarm</tspan></text>
    </g>
    <g id="work-alt" transform="translate(84.5 453)" opacity="0.5">
      <path id="Path_4" data-name="Path 4" d="M27.833,10.941a4.971,4.971,0,0,0-5-4.941H16.167a4.971,4.971,0,0,0-5,4.941H9.5a4.971,4.971,0,0,0-5,4.941V29.059A4.971,4.971,0,0,0,9.5,34h20a4.971,4.971,0,0,0,5-4.941V15.882a4.971,4.971,0,0,0-5-4.941Zm-5-1.647H16.167A1.657,1.657,0,0,0,14.5,10.941h10A1.657,1.657,0,0,0,22.833,9.294ZM9.5,14.235h20a1.657,1.657,0,0,1,1.667,1.647V29.059A1.657,1.657,0,0,1,29.5,30.706H9.5a1.657,1.657,0,0,1-1.667-1.647V15.882A1.657,1.657,0,0,1,9.5,14.235Z" transform="translate(-45 -69)" fill="#fff" fill-rule="evenodd"/>
    </g>
    <text id="Set_Alarm-2" data-name="Set Alarm" transform="translate(188 127)" fill="#fff" font-size="31" font-family="BerlinSansFB-Reg, Berlin Sans FB" letter-spacing="0.02em" opacity="0.5"><tspan x="-66.743" y="0">Set Alarm</tspan></text>
    <g id="alarm-fill" transform="translate(43.997 479)" opacity="0.5">
      <path id="Path_1" data-name="Path 1" d="M10.314.937A.938.938,0,0,1,11.251,0h7.5a.937.937,0,1,1,0,1.875H16.877V3.881a13.128,13.128,0,0,1,6.632,22.986l1.532,1.53a.939.939,0,1,1-1.328,1.327l-1.733-1.734a13.137,13.137,0,0,1-13.958,0L6.29,29.724A.939.939,0,0,1,4.963,28.4l1.532-1.53A13.128,13.128,0,0,1,13.127,3.881V1.875H11.25a.938.938,0,0,1-.938-.937ZM1.613,10.1A4.688,4.688,0,1,1,8.227,3.487,15.066,15.066,0,0,0,1.613,10.1Zm23.7-8.225a4.677,4.677,0,0,0-3.539,1.612A15.066,15.066,0,0,1,28.39,10.1a4.687,4.687,0,0,0-3.075-8.225Zm-9.376,7.5a.938.938,0,0,0-1.875,0v7.279l-2.714,5.426a.937.937,0,1,0,1.676.84l2.813-5.625a.937.937,0,0,0,.1-.42Z" transform="translate(0 0)" fill="#fff" fill-rule="evenodd"/>
    </g>
    <text id="Vibrate-2" data-name="Vibrate" transform="translate(147 502)" fill="#9a0196" font-size="20" font-family="BerlinSansFB-Reg, Berlin Sans FB" opacity="0.5"><tspan x="0" y="0">Vibrate</tspan></text>
    <g id="Pop-up">
      <g id="Pop-up-2" data-name="Pop-up" transform="translate(374 132)">
        <g id="Rectangle_15" data-name="Rectangle 15" transform="translate(-344 151)" fill="#fff" stroke="#fff" stroke-width="2">
          <rect width="315" height="249" rx="10" stroke="none"/>
          <rect x="1" y="1" width="313" height="247" rx="9" fill="none"/>
        </g>
      </g>
    </g>
    <g id="Sound_Only_1" data-name="Sound Only 1" transform="translate(62 363)">
      <g transform="matrix(1, 0, 0, 1, -62, -363)" filter="url(#Sound_Only)">
        <text id="Sound_Only-2" data-name="Sound Only" transform="translate(62 381)" fill="#fff" font-size="20" font-family="BerlinSansFB-Reg, Berlin Sans FB"><tspan x="0" y="0">Sound Only</tspan></text>
      </g>
      <g id="radio-checked" transform="translate(232 1.5)">
        <path id="Path_9" data-name="Path 9" d="M23,13A10,10,0,1,1,13,3,10,10,0,0,1,23,13Zm-2,0a8,8,0,1,1-8-8A8,8,0,0,1,21,13Z" transform="translate(-3 -3)" fill="#9a0196" fill-rule="evenodd"/>
      </g>
    </g>
    <g id="Vibrate_1" data-name="Vibrate 1" transform="translate(62 430.218)">
      <g transform="matrix(1, 0, 0, 1, -62, -430.22)" filter="url(#Vibrate)">
        <text id="Vibrate-3" data-name="Vibrate" transform="translate(93 448)" fill="#fff" font-size="20" font-family="BerlinSansFB-Reg, Berlin Sans FB"><tspan x="-31.045" y="0">Vibrate</tspan></text>
      </g>
      <g id="radio-checked-2" data-name="radio-checked" transform="translate(232 1.449)">
        <path id="Path_8" data-name="Path 8" d="M16,20a4,4,0,1,0-4-4A4,4,0,0,0,16,20Z" transform="translate(-6 -6)" fill="#9a0196"/>
        <path id="Path_9-2" data-name="Path 9" d="M23,13A10,10,0,1,1,13,3,10,10,0,0,1,23,13Zm-2,0a8,8,0,1,1-8-8A8,8,0,0,1,21,13Z" transform="translate(-3 -3)" fill="#9a0196" fill-rule="evenodd"/>
      </g>
    </g>
    <g id="arrow-right" transform="translate(175.25 481.25)">
      <path id="Path_10" data-name="Path 10" d="M16.536,6.75l5.714,7.5-5.714,7.5m5.714-7.5h-20" fill="none" stroke="#9a0196" stroke-linecap="round" stroke-linejoin="round" stroke-width="2"/>
    </g>
  </g>
</svg>
