<svg xmlns="http://www.w3.org/2000/svg" xmlns:xlink="http://www.w3.org/1999/xlink" width="375" height="812" viewBox="0 0 375 812">
  <defs>
    <clipPath id="clip-iPhone_X_XS_11_Pro_28">
      <rect width="375" height="812"/>
    </clipPath>
  </defs>
  <g id="iPhone_X_XS_11_Pro_28" data-name="iPhone X, XS, 11 Pro – 28" clip-path="url(#clip-iPhone_X_XS_11_Pro_28)">
    <rect width="375" height="812" fill="#3d3d3d"/>
    <circle id="Ellipse_5" data-name="Ellipse 5" cx="50" cy="50" r="50" transform="translate(137.5 356)" fill="#9a0196"/>
    <path id="home" d="M21.938,2.534a1.324,1.324,0,0,0-1.653,0L1.125,17.622l1.653,2.126L5.125,17.89V34.552a2.679,2.679,0,0,0,2.667,2.692H34.458a2.679,2.679,0,0,0,2.667-2.692V17.9l2.347,1.844,1.653-2.113Zm1.854,32.018H18.458V23.785h5.333Zm2.667,0V23.785a2.679,2.679,0,0,0-2.667-2.692H18.458a2.679,2.679,0,0,0-2.667,2.692V34.552h-8V15.791L21.125,5.307,34.458,15.8V34.552Z" transform="translate(166.875 386.756)" fill="#fff" opacity="0"/>
    <g id="work-alt" transform="translate(208.5 452)" opacity="0">
      <path id="Path_4" data-name="Path 4" d="M35.611,12.176A6.436,6.436,0,0,0,28.944,6H20.056a6.436,6.436,0,0,0-6.667,6.176H11.167A6.436,6.436,0,0,0,4.5,18.353V34.824A6.436,6.436,0,0,0,11.167,41H37.833A6.436,6.436,0,0,0,44.5,34.824V18.353a6.436,6.436,0,0,0-6.667-6.176Zm-6.667-2.059H20.056a2.145,2.145,0,0,0-2.222,2.059H31.167A2.145,2.145,0,0,0,28.944,10.118ZM11.167,16.294H37.833a2.145,2.145,0,0,1,2.222,2.059V34.824a2.145,2.145,0,0,1-2.222,2.059H11.167a2.145,2.145,0,0,1-2.222-2.059V18.353A2.145,2.145,0,0,1,11.167,16.294Z" transform="translate(-45 -69)" fill="#fff" fill-rule="evenodd"/>
    </g>
  </g>
</svg>
