<svg xmlns="http://www.w3.org/2000/svg" xmlns:xlink="http://www.w3.org/1999/xlink" width="375" height="812" viewBox="0 0 375 812">
  <defs>
    <clipPath id="clip-iPhone_X_XS_11_Pro_6">
      <rect width="375" height="812"/>
    </clipPath>
  </defs>
  <g id="iPhone_X_XS_11_Pro_6" data-name="iPhone X, XS, 11 Pro – 6" clip-path="url(#clip-iPhone_X_XS_11_Pro_6)">
    <rect width="375" height="812" fill="#3d3d3d"/>
    <text id="Select_Station_for_Work" data-name="Select
Station for Work" transform="translate(188 129)" fill="#fff" font-size="31" font-family="BerlinSansFB-Reg, Berlin Sans FB" letter-spacing="0.02em"><tspan x="-38.665" y="0">Select</tspan><tspan x="-111.296" y="25">Station for Work</tspan></text>
    <g id="Rectangle_10" data-name="Rectangle 10" transform="translate(36 363)" fill="rgba(255,255,255,0.99)" stroke="#9f1cc5" stroke-width="1">
      <rect width="303" height="61" rx="10" stroke="none"/>
      <rect x="0.5" y="0.5" width="302" height="60" rx="9.5" fill="none"/>
    </g>
    <g id="work-alt" transform="translate(183.5 273)">
      <path id="Path_4" data-name="Path 4" d="M74.5,20.118C74.5,12.321,67.784,6,59.5,6h-20c-8.284,0-15,6.321-15,14.118h-5c-8.284,0-15,6.321-15,14.118V71.882C4.5,79.679,11.216,86,19.5,86h60c8.284,0,15-6.321,15-14.118V34.235c0-7.8-6.716-14.118-15-14.118Zm-15-4.706h-20a4.86,4.86,0,0,0-5,4.706h30A4.86,4.86,0,0,0,59.5,15.412Zm-40,14.118h60a4.86,4.86,0,0,1,5,4.706V71.882a4.86,4.86,0,0,1-5,4.706h-60a4.86,4.86,0,0,1-5-4.706V34.235A4.86,4.86,0,0,1,19.5,29.529Z" transform="translate(-45 -69)" fill="#fff" fill-rule="evenodd"/>
    </g>
    <text id="Manhattan" transform="translate(77 401)" fill="#9a0196" font-size="20" font-family="BerlinSansFB-Reg, Berlin Sans FB"><tspan x="0" y="0">Manhattan</tspan></text>
    <path id="drop-down" d="M7.5,12,15,19l7.5-7Z" transform="translate(297.5 379)" fill="#9a0196" fill-rule="evenodd"/>
    <g id="Button">
      <g id="Rectangle_9" data-name="Rectangle 9" transform="translate(101 681)" fill="#9a0196" stroke="#fff" stroke-width="1">
        <rect width="173" height="36" rx="18" stroke="none"/>
        <rect x="0.5" y="0.5" width="172" height="35" rx="17.5" fill="none"/>
      </g>
      <text id="Select_Home" data-name="Select Home" transform="translate(147 704)" fill="#fff" font-size="15" font-family="BerlinSansFB-Reg, Berlin Sans FB" letter-spacing="0.02em"><tspan x="0" y="0">Select Home</tspan></text>
    </g>
  </g>
</svg>
